<?xml version="1.0" encoding="iso-8859-1"?>
<!-- Generator: Adobe Illustrator 17.1.0, SVG Export Plug-In . SVG Version: 6.00 Build 0)  -->
<!DOCTYPE svg PUBLIC "-//W3C//DTD SVG 1.1//EN" "http://www.w3.org/Graphics/SVG/1.1/DTD/svg11.dtd">
<svg version="1.1" id="Capa_1" xmlns="http://www.w3.org/2000/svg" xmlns:xlink="http://www.w3.org/1999/xlink" x="0px" y="0px"
	 viewBox="0 0 512 512" style="enable-background:new 0 0 512 512;" xml:space="preserve">
<g>
	<path d="M472,268.109H40c-4.418,0-8,3.582-8,8s3.582,8,8,8h432c4.418,0,8-3.582,8-8S476.418,268.109,472,268.109z"/>
	<path d="M320,300.109H192c-4.418,0-8,3.582-8,8s3.582,8,8,8h128c4.418,0,8-3.582,8-8S324.418,300.109,320,300.109z"/>
	<path d="M483.105,224.948c-9.717-8.094-13.741-11.93-11.921-21.398c5.588-10.328,8.816-22.464,8.816-35.441
		c0-21.712-9.036-41.065-23.059-53.524c-8.67-14.833-24.283-25.463-43.123-29.246c-20.05-4.025-40.644,0.458-55.09,11.994
		c-37.046,29.583-68.729,42.775-102.728,42.775s-65.682-13.192-102.728-42.775c-14.446-11.536-35.038-16.02-55.09-11.994
		c-18.84,3.783-34.453,14.412-43.123,29.246C41.036,127.043,32,146.397,32,168.109c0,12.977,3.228,25.113,8.816,35.441
		c1.82,9.468-2.204,13.304-11.921,21.398C16.701,235.105,0,249.017,0,284.109c0,30.939,44.4,68.017,85.951,92.4
		c55.883,32.792,117.864,51.6,170.049,51.6s114.166-18.808,170.049-51.6C467.6,352.126,512,315.048,512,284.109
		C512,249.017,495.299,235.105,483.105,224.948z M464,168.109c0,10.586-2.697,20.437-7.312,28.661
		c-0.078,0.13-0.148,0.266-0.219,0.402c-7.916,13.829-21.31,22.938-36.47,22.938c-24.262,0-44-23.327-44-52s19.738-52,44-52
		c9.28,0,17.893,3.422,24.998,9.241c0.354,0.361,0.738,0.682,1.146,0.964C456.969,135.797,464,150.999,464,168.109z M65.853,126.317
		c0.41-0.283,0.795-0.605,1.15-0.967c7.105-5.819,15.717-9.24,24.997-9.24c24.262,0,44,23.327,44,52s-19.738,52-44,52
		c-15.159,0-28.552-9.107-36.468-22.934c-0.072-0.138-0.144-0.276-0.223-0.409C50.696,188.543,48,178.693,48,168.109
		C48,151,55.03,135.799,65.853,126.317z M417.951,362.709c-52.713,30.933-113.256,49.4-161.951,49.4s-109.238-18.467-161.951-49.4
		C48.095,335.743,16,303.421,16,284.109c0-27.596,11.761-37.393,23.135-46.867c5.548-4.621,11.494-9.584,15.007-16.426
		c10.334,9.552,23.514,15.293,37.858,15.293c33.084,0,60-30.505,60-68c0-33.803-21.879-61.914-50.429-67.125
		c15.399-3.025,30.974,0.274,41.716,8.852c40.075,32.001,74.837,46.272,112.712,46.272s72.637-14.271,112.712-46.272
		c10.743-8.579,26.32-11.878,41.717-8.852C381.879,106.195,360,134.306,360,168.109c0,37.495,26.916,68,60,68
		c14.344,0,27.524-5.741,37.858-15.293c3.512,6.842,9.459,11.805,15.007,16.426C484.239,246.716,496,256.513,496,284.109
		C496,303.421,463.905,335.743,417.951,362.709z"/>
	<path d="M92,180.109c8.445,0,36-1.154,36-16s-27.555-16-36-16s-36,1.154-36,16S83.555,180.109,92,180.109z"/>
	<path d="M384,164.109c0,14.846,27.555,16,36,16s36-1.154,36-16s-27.555-16-36-16S384,149.263,384,164.109z"/>
	<path d="M232,228.109c4.418,0,8-3.582,8-8v-8c0-4.418-3.582-8-8-8s-8,3.582-8,8v8C224,224.527,227.582,228.109,232,228.109z"/>
	<path d="M280,228.109c4.418,0,8-3.582,8-8v-8c0-4.418-3.582-8-8-8s-8,3.582-8,8v8C272,224.527,275.582,228.109,280,228.109z"/>
</g>
<g>
</g>
<g>
</g>
<g>
</g>
<g>
</g>
<g>
</g>
<g>
</g>
<g>
</g>
<g>
</g>
<g>
</g>
<g>
</g>
<g>
</g>
<g>
</g>
<g>
</g>
<g>
</g>
<g>
</g>
</svg>
